<svg width="32" height="13" viewBox="0 0 32 13" fill="none" xmlns="http://www.w3.org/2000/svg">
<path d="M0.252841 12V10.4773L4.29261 6.51705C4.67898 6.12689 5.00095 5.7803 5.25852 5.47727C5.5161 5.17424 5.70928 4.88068 5.83807 4.59659C5.96686 4.3125 6.03125 4.00947 6.03125 3.6875C6.03125 3.32008 5.94792 3.00568 5.78125 2.74432C5.61458 2.47917 5.38542 2.27462 5.09375 2.13068C4.80208 1.98674 4.47064 1.91477 4.09943 1.91477C3.71686 1.91477 3.38163 1.99432 3.09375 2.15341C2.80587 2.30871 2.58239 2.5303 2.4233 2.81818C2.26799 3.10606 2.19034 3.44886 2.19034 3.84659H0.184659C0.184659 3.10795 0.35322 2.46591 0.690341 1.92045C1.02746 1.375 1.49148 0.952651 2.08239 0.653409C2.67708 0.354166 3.3589 0.204545 4.12784 0.204545C4.90814 0.204545 5.59375 0.350378 6.18466 0.642045C6.77557 0.933712 7.2339 1.33333 7.55966 1.84091C7.8892 2.34848 8.05398 2.92803 8.05398 3.57955C8.05398 4.01515 7.97064 4.44318 7.80398 4.86364C7.63731 5.28409 7.34375 5.75 6.9233 6.26136C6.50663 6.77273 5.9214 7.39205 5.16761 8.11932L3.16193 10.1591V10.2386H8.23011V12H0.252841ZM14.2358 12.1591C13.4782 12.1591 12.8002 12.017 12.2017 11.733C11.6032 11.4451 11.1278 11.0511 10.7756 10.5511C10.4271 10.0511 10.2415 9.47917 10.2188 8.83523H12.2642C12.3021 9.3125 12.5085 9.70265 12.8835 10.0057C13.2585 10.3049 13.7093 10.4545 14.2358 10.4545C14.6487 10.4545 15.0161 10.3598 15.3381 10.1705C15.66 9.98106 15.9138 9.7178 16.0994 9.38068C16.285 9.04356 16.3759 8.65909 16.3722 8.22727C16.3759 7.78788 16.2831 7.39773 16.0938 7.05682C15.9044 6.71591 15.6449 6.44886 15.3153 6.25568C14.9858 6.05871 14.607 5.96023 14.179 5.96023C13.8305 5.95644 13.4877 6.02083 13.1506 6.15341C12.8134 6.28598 12.5464 6.46023 12.3494 6.67614L10.446 6.36364L11.054 0.363636H17.804V2.125H12.7983L12.4631 5.21023H12.5312C12.7472 4.95644 13.0521 4.74621 13.446 4.57955C13.84 4.40909 14.2718 4.32386 14.7415 4.32386C15.446 4.32386 16.0748 4.49053 16.6278 4.82386C17.1809 5.15341 17.6165 5.60795 17.9347 6.1875C18.2528 6.76705 18.4119 7.42992 18.4119 8.17614C18.4119 8.94508 18.2339 9.63068 17.8778 10.233C17.5256 10.8314 17.035 11.303 16.4062 11.6477C15.7812 11.9886 15.0578 12.1591 14.2358 12.1591ZM26.5369 9.81818V9.20455C26.5369 8.75379 26.6316 8.33902 26.821 7.96023C27.0142 7.58144 27.2945 7.27652 27.6619 7.04545C28.0294 6.81439 28.4744 6.69886 28.9972 6.69886C29.535 6.69886 29.9858 6.81439 30.3494 7.04545C30.7131 7.27273 30.9877 7.57576 31.1733 7.95455C31.3627 8.33333 31.4574 8.75 31.4574 9.20455V9.81818C31.4574 10.2689 31.3627 10.6837 31.1733 11.0625C30.9839 11.4413 30.7055 11.7462 30.3381 11.9773C29.9744 12.2083 29.5275 12.3239 28.9972 12.3239C28.4669 12.3239 28.018 12.2083 27.6506 11.9773C27.2831 11.7462 27.0047 11.4413 26.8153 11.0625C26.6297 10.6837 26.5369 10.2689 26.5369 9.81818ZM28.0199 9.20455V9.81818C28.0199 10.1174 28.0919 10.392 28.2358 10.642C28.3797 10.892 28.6335 11.017 28.9972 11.017C29.3646 11.017 29.6165 10.8939 29.7528 10.6477C29.893 10.3977 29.9631 10.1212 29.9631 9.81818V9.20455C29.9631 8.90152 29.8968 8.625 29.7642 8.375C29.6316 8.12121 29.3759 7.99432 28.9972 7.99432C28.6411 7.99432 28.3892 8.12121 28.2415 8.375C28.0938 8.625 28.0199 8.90152 28.0199 9.20455ZM20.6222 3.15909V2.54545C20.6222 2.09091 20.7188 1.67424 20.9119 1.29545C21.1051 0.916666 21.3854 0.613636 21.7528 0.386363C22.1203 0.155302 22.5653 0.039772 23.0881 0.039772C23.6222 0.039772 24.071 0.155302 24.4347 0.386363C24.8021 0.613636 25.0786 0.916666 25.2642 1.29545C25.4498 1.67424 25.5426 2.09091 25.5426 2.54545V3.15909C25.5426 3.61364 25.4479 4.0303 25.2585 4.40909C25.0729 4.78409 24.7964 5.08523 24.429 5.3125C24.0616 5.53977 23.6146 5.65341 23.0881 5.65341C22.554 5.65341 22.1032 5.53977 21.7358 5.3125C21.3722 5.08523 21.0956 4.7822 20.9062 4.40341C20.7169 4.02462 20.6222 3.60985 20.6222 3.15909ZM22.1165 2.54545V3.15909C22.1165 3.46212 22.1866 3.73864 22.3267 3.98864C22.4706 4.23485 22.7244 4.35795 23.0881 4.35795C23.4517 4.35795 23.7017 4.23485 23.8381 3.98864C23.9782 3.73864 24.0483 3.46212 24.0483 3.15909V2.54545C24.0483 2.24242 23.982 1.96591 23.8494 1.71591C23.7169 1.46212 23.4631 1.33523 23.0881 1.33523C22.7282 1.33523 22.4763 1.46212 22.3324 1.71591C22.1884 1.9697 22.1165 2.24621 22.1165 2.54545ZM21.2699 12L29.2699 0.363636H30.6903L22.6903 12H21.2699Z" fill="#56976E"/>
</svg>
