<svg width="48" height="48" viewBox="0 0 48 48" fill="none" xmlns="http://www.w3.org/2000/svg">
<path d="M24.0009 31.75C24.5003 31.75 24.9333 31.5664 25.3 31.1991C25.6667 30.8319 25.85 30.3986 25.85 29.8991C25.85 29.3997 25.6664 28.9667 25.2992 28.6C24.9319 28.2333 24.4986 28.05 23.9992 28.05C23.4997 28.05 23.0667 28.2336 22.7 28.6009C22.3333 28.9681 22.15 29.4014 22.15 29.9009C22.15 30.4003 22.3336 30.8333 22.7009 31.2C23.0681 31.5667 23.5014 31.75 24.0009 31.75ZM22.75 25.55H25.25C25.25 25.05 25.2583 24.6167 25.275 24.25C25.2917 23.8833 25.3833 23.5667 25.55 23.3C25.6833 23.0333 25.8667 22.7833 26.1 22.55C26.3333 22.3167 26.75 21.9167 27.35 21.35C28.1167 20.6833 28.6583 20.025 28.975 19.375C29.2917 18.725 29.45 17.9667 29.45 17.1C29.45 15.6101 28.975 14.4293 28.025 13.5576C27.075 12.6859 25.7893 12.25 24.1678 12.25C22.8893 12.25 21.7333 12.5968 20.7 13.2905C19.6667 13.9841 18.9667 14.904 18.6 16.05L20.85 16.95C21.1167 16.2833 21.55 15.7333 22.15 15.3C22.75 14.8667 23.4233 14.65 24.17 14.65C25.0233 14.65 25.7 14.8833 26.2 15.35C26.7 15.8167 26.95 16.4333 26.95 17.2C26.95 17.7802 26.8167 18.2835 26.55 18.7101C26.2833 19.1367 25.8245 19.6522 25.1736 20.2567C24.5912 20.7856 24.1417 21.225 23.825 21.575C23.5083 21.925 23.2833 22.2659 23.15 22.5976C23.0167 22.8992 22.9167 23.275 22.85 23.725C22.7833 24.175 22.75 24.7833 22.75 25.55ZM24 40.05C28.4333 36.0167 31.7083 32.3583 33.825 29.075C35.9417 25.7917 37 22.9 37 20.4C37 16.4737 35.7451 13.2588 33.2354 10.7553C30.7257 8.25175 27.6472 7 24 7C20.3528 7 17.2743 8.25175 14.7646 10.7553C12.2549 13.2588 11 16.4737 11 20.4C11 22.9 12.0833 25.7917 14.25 29.075C16.4167 32.3583 19.6667 36.0167 24 40.05ZM24 44C18.6333 39.4333 14.625 35.1917 11.975 31.275C9.325 27.3583 8 23.7333 8 20.4C8 15.4 9.60833 11.4167 12.825 8.45C16.0417 5.48333 19.7667 4 24 4C28.2333 4 31.9583 5.48333 35.175 8.45C38.3917 11.4167 40 15.4 40 20.4C40 23.7333 38.675 27.3583 36.025 31.275C33.375 35.1917 29.3667 39.4333 24 44Z" fill="#0073CF"/>
</svg>
